<?xml version="1.0" encoding="UTF-8" standalone="no"?>
<!-- Created with Inkscape (http://www.inkscape.org/) -->

<svg
   width="122.69152mm"
   height="21.685247mm"
   viewBox="0 0 122.69152 21.685247"
   version="1.1"
   id="svg1"
   xmlns="http://www.w3.org/2000/svg"
   xmlns:svg="http://www.w3.org/2000/svg">
  <defs
     id="defs1" />
  <g
     id="layer1"
     transform="translate(-2.8500674,-3.0549615)">
    <g
       id="g30"
       transform="translate(-18.613666,-42.083072)">
      <path
         id="path1-97"
         style="fill:none;stroke:#dfd717;stroke-width:2;stroke-linecap:round;stroke-linejoin:miter;stroke-dasharray:none;stroke-opacity:1;paint-order:normal"
         d="m 32.720998,47.397318 2.927506,5.71657 6.368841,0.82921 -4.53218,4.55071 1.179454,6.31336 -5.728534,-2.90407 -5.63989,3.07267 0.991724,-6.34557 -4.665102,-4.41434 6.341447,-1.0177 z" />
      <path
         id="path2"
         style="fill:none;stroke:#dfd717;stroke-width:2;stroke-linecap:round;stroke-linejoin:miter;stroke-dasharray:none;stroke-opacity:1;paint-order:normal"
         d="m 57.720502,47.397318 2.927506,5.71657 6.368841,0.82921 -4.53218,4.55071 1.179454,6.31336 -5.728534,-2.90407 -5.63989,3.07267 0.991724,-6.34557 -4.665102,-4.41434 6.341447,-1.0177 z" />
      <path
         id="path3"
         style="fill:none;stroke:#dfd717;stroke-width:2;stroke-linecap:round;stroke-linejoin:miter;stroke-dasharray:none;stroke-opacity:1;paint-order:normal"
         d="m 82.720502,47.397318 2.927506,5.71657 6.368841,0.82921 -4.53218,4.55071 1.179454,6.31336 -5.728534,-2.90407 -5.63989,3.07267 0.991724,-6.34557 -4.665102,-4.41434 6.341447,-1.0177 z" />
      <path
         id="path4"
         style="fill:none;stroke:#dfd717;stroke-width:2;stroke-linecap:round;stroke-linejoin:miter;stroke-dasharray:none;stroke-opacity:1;paint-order:normal"
         d="m 107.7205,47.397318 2.92751,5.71657 6.36884,0.82921 -4.53218,4.55071 1.17946,6.31336 -5.72854,-2.90407 -5.63989,3.07267 0.99173,-6.34557 -4.665113,-4.41434 6.341453,-1.0177 z" />
      <path
         id="path5"
         style="fill:none;stroke:#dfd717;stroke-width:2;stroke-linecap:round;stroke-linejoin:miter;stroke-dasharray:none;stroke-opacity:1;paint-order:normal"
         d="m 132.72051,47.397318 2.92751,5.71657 6.36884,0.82921 -4.53218,4.55071 1.17946,6.31336 -5.72854,-2.90407 -5.63989,3.07267 0.99173,-6.34557 -4.66511,-4.41434 6.34145,-1.0177 z" />
    </g>
  </g>
</svg>
