<?xml version="1.0" encoding="UTF-8" standalone="no"?>
<!-- Created with Inkscape (http://www.inkscape.org/) -->

<svg
   width="122.69152mm"
   height="21.685257mm"
   viewBox="0 0 122.69152 21.685257"
   version="1.1"
   id="svg1"
   xmlns="http://www.w3.org/2000/svg"
   xmlns:svg="http://www.w3.org/2000/svg">
  <defs
     id="defs1" />
  <g
     id="layer1"
     transform="translate(-2.8500674,-53.054927)">
    <g
       id="g32"
       transform="translate(-18.613666,-42.083072)">
      <path
         id="path16"
         style="fill:#dfd717;fill-opacity:1;stroke:#dfd717;stroke-width:2;stroke-linecap:round;stroke-linejoin:miter;stroke-dasharray:none;stroke-opacity:1;paint-order:normal"
         d="m 32.720998,97.397285 2.927506,5.716575 6.368841,0.8292 -4.53218,4.55072 1.179454,6.31336 -5.728534,-2.90408 -5.63989,3.07268 0.991724,-6.34557 -4.665102,-4.41435 6.341447,-1.01769 z" />
      <path
         id="path17"
         style="fill:none;stroke:#dfd717;stroke-width:2;stroke-linecap:round;stroke-linejoin:miter;stroke-dasharray:none;stroke-opacity:1;paint-order:normal"
         d="m 57.720502,97.397285 2.927506,5.716575 6.368841,0.8292 -4.53218,4.55072 1.179454,6.31336 -5.728534,-2.90408 -5.63989,3.07268 0.991724,-6.34557 -4.665102,-4.41435 6.341447,-1.01769 z" />
      <path
         id="path18"
         style="fill:none;stroke:#dfd717;stroke-width:2;stroke-linecap:round;stroke-linejoin:miter;stroke-dasharray:none;stroke-opacity:1;paint-order:normal"
         d="m 82.720502,97.397285 2.927506,5.716575 6.368841,0.8292 -4.53218,4.55072 1.179454,6.31336 -5.728534,-2.90408 -5.63989,3.07268 0.991724,-6.34557 -4.665102,-4.41435 6.341447,-1.01769 z" />
      <path
         id="path19"
         style="fill:none;stroke:#dfd717;stroke-width:2;stroke-linecap:round;stroke-linejoin:miter;stroke-dasharray:none;stroke-opacity:1;paint-order:normal"
         d="m 107.7205,97.397285 2.92751,5.716575 6.36884,0.8292 -4.53218,4.55072 1.17946,6.31336 -5.72854,-2.90408 -5.63989,3.07268 0.99173,-6.34557 -4.665113,-4.41435 6.341453,-1.01769 z" />
      <path
         id="path20"
         style="fill:none;stroke:#dfd717;stroke-width:2;stroke-linecap:round;stroke-linejoin:miter;stroke-dasharray:none;stroke-opacity:1;paint-order:normal"
         d="m 132.72051,97.397285 2.92751,5.716575 6.36884,0.8292 -4.53218,4.55072 1.17946,6.31336 -5.72854,-2.90408 -5.63989,3.07268 0.99173,-6.34557 -4.66511,-4.41435 6.34145,-1.01769 z" />
    </g>
  </g>
</svg>
