<?xml version="1.0" encoding="UTF-8" standalone="no"?>
<!-- Created with Inkscape (http://www.inkscape.org/) -->

<svg
   width="122.69151mm"
   height="21.685251mm"
   viewBox="0 0 122.69151 21.685251"
   version="1.1"
   id="svg1"
   xmlns="http://www.w3.org/2000/svg"
   xmlns:svg="http://www.w3.org/2000/svg">
  <defs
     id="defs1" />
  <g
     id="layer1"
     transform="translate(-2.850067,-203.055)">
    <g
       id="g88">
      <path
         id="path65"
         style="fill:#dfd717;fill-opacity:1;stroke:#dfd717;stroke-width:2;stroke-linecap:round;stroke-linejoin:miter;stroke-dasharray:none;stroke-opacity:1;paint-order:normal"
         d="m 14.107332,205.31428 2.927506,5.71657 6.368841,0.8292 -4.53218,4.55072 1.179454,6.31336 -5.728534,-2.90408 -5.6398904,3.07268 0.991724,-6.34557 -4.665102,-4.41435 6.3414474,-1.01769 z" />
      <path
         id="path66"
         style="fill:none;stroke:#dfd717;stroke-width:2;stroke-linecap:round;stroke-linejoin:miter;stroke-dasharray:none;stroke-opacity:1;paint-order:normal"
         d="m 114.10684,205.31428 2.92751,5.71657 6.36884,0.8292 -4.53218,4.55072 1.17946,6.31336 -5.72854,-2.90408 -5.63989,3.07268 0.99173,-6.34557 -4.66511,-4.41435 6.34145,-1.01769 z" />
      <path
         id="path67"
         style="fill:#dfd717;fill-opacity:1;stroke:#dfd717;stroke-width:2;stroke-linecap:round;stroke-linejoin:miter;stroke-dasharray:none;stroke-opacity:1;paint-order:normal"
         d="m 39.107599,205.31428 2.927506,5.71657 6.368841,0.8292 -4.53218,4.55072 1.179454,6.31336 -5.728534,-2.90408 -5.63989,3.07268 0.991724,-6.34557 -4.665102,-4.41435 6.341447,-1.01769 z" />
      <path
         id="path68"
         style="fill:#dfd717;fill-opacity:1;stroke:#dfd717;stroke-width:2;stroke-linecap:round;stroke-linejoin:miter;stroke-dasharray:none;stroke-opacity:1;paint-order:normal"
         d="m 64.107265,205.31428 2.927506,5.71657 6.368841,0.8292 -4.53218,4.55072 1.179454,6.31336 -5.728534,-2.90408 -5.63989,3.07268 0.991724,-6.34557 -4.665102,-4.41435 6.341447,-1.01769 z" />
      <path
         id="path70"
         style="fill:#dfd717;fill-opacity:1;stroke:#dfd717;stroke-width:2;stroke-linecap:round;stroke-linejoin:miter;stroke-dasharray:none;stroke-opacity:1;paint-order:normal"
         d="m 89.107265,205.31428 2.927506,5.71657 6.368841,0.8292 -4.53218,4.55072 1.179454,6.31336 -5.728534,-2.90408 -5.63989,3.07268 0.991724,-6.34557 -4.665102,-4.41435 6.341447,-1.01769 z" />
    </g>
  </g>
</svg>
