<svg width="96" height="15" viewBox="0 0 96 15" fill="none" xmlns="http://www.w3.org/2000/svg">
<mask id="path-1-inside-1_106_19" fill="white">
<path fill-rule="evenodd" clip-rule="evenodd" d="M7.99999 0L9.7961 5.52786H15.6084L10.9062 8.94427L12.7023 14.4721L7.99999 11.0557L3.29771 14.4721L5.09382 8.94427L0.391541 5.52786H6.20388L7.99999 0ZM28 0L29.7961 5.52786H35.6084L30.9062 8.94427L32.7023 14.4721L28 11.0557L23.2977 14.4721L25.0938 8.94427L20.3915 5.52786H26.2039L28 0ZM49.7961 5.52786L48 0L46.2039 5.52786H40.3915L45.0938 8.94427L43.2977 14.4721L48 11.0557L52.7023 14.4721L50.9062 8.94427L55.6084 5.52786H49.7961ZM68 0L69.7961 5.52786H75.6084L70.9062 8.94427L72.7023 14.4721L68 11.0557L63.2977 14.4721L65.0938 8.94427L60.3915 5.52786H66.2039L68 0ZM89.7961 5.52786L88 0L86.2039 5.52786H80.3915L85.0938 8.94427L83.2977 14.4721L88 11.0557L92.7023 14.4721L90.9062 8.94427L95.6084 5.52786H89.7961Z"/>
</mask>
<path fill-rule="evenodd" clip-rule="evenodd" d="M7.99999 0L9.7961 5.52786H15.6084L10.9062 8.94427L12.7023 14.4721L7.99999 11.0557L3.29771 14.4721L5.09382 8.94427L0.391541 5.52786H6.20388L7.99999 0ZM28 0L29.7961 5.52786H35.6084L30.9062 8.94427L32.7023 14.4721L28 11.0557L23.2977 14.4721L25.0938 8.94427L20.3915 5.52786H26.2039L28 0ZM49.7961 5.52786L48 0L46.2039 5.52786H40.3915L45.0938 8.94427L43.2977 14.4721L48 11.0557L52.7023 14.4721L50.9062 8.94427L55.6084 5.52786H49.7961ZM68 0L69.7961 5.52786H75.6084L70.9062 8.94427L72.7023 14.4721L68 11.0557L63.2977 14.4721L65.0938 8.94427L60.3915 5.52786H66.2039L68 0ZM89.7961 5.52786L88 0L86.2039 5.52786H80.3915L85.0938 8.94427L83.2977 14.4721L88 11.0557L92.7023 14.4721L90.9062 8.94427L95.6084 5.52786H89.7961Z" fill="#F9F139"/>
<path d="M9.7961 5.52786L8.84505 5.83688L9.06956 6.52786H9.7961V5.52786ZM7.99999 0L8.95105 -0.309017L7.99999 -3.23607L7.04894 -0.309017L7.99999 0ZM15.6084 5.52786L16.1962 6.33688L18.6861 4.52786H15.6084V5.52786ZM10.9062 8.94427L10.3184 8.13526L9.73059 8.56231L9.95511 9.25329L10.9062 8.94427ZM12.7023 14.4721L12.1145 15.2812L14.6044 17.0902L13.6533 14.1631L12.7023 14.4721ZM7.99999 11.0557L8.58778 10.2467L7.99999 9.81966L7.41221 10.2467L7.99999 11.0557ZM3.29771 14.4721L2.34665 14.1631L1.3956 17.0902L3.8855 15.2812L3.29771 14.4721ZM5.09382 8.94427L6.04488 9.25329L6.26939 8.56231L5.68161 8.13526L5.09382 8.94427ZM0.391541 5.52786V4.52786H-2.68614L-0.196245 6.33688L0.391541 5.52786ZM6.20388 5.52786V6.52786H6.93042L7.15494 5.83688L6.20388 5.52786ZM29.7961 5.52786L28.845 5.83688L29.0696 6.52786H29.7961V5.52786ZM28 0L28.951 -0.309017L28 -3.23607L27.0489 -0.309017L28 0ZM35.6084 5.52786L36.1962 6.33688L38.6861 4.52786H35.6084V5.52786ZM30.9062 8.94427L30.3184 8.13526L29.7306 8.56231L29.9551 9.25329L30.9062 8.94427ZM32.7023 14.4721L32.1145 15.2812L34.6044 17.0902L33.6533 14.1631L32.7023 14.4721ZM28 11.0557L28.5878 10.2467L28 9.81966L27.4122 10.2467L28 11.0557ZM23.2977 14.4721L22.3467 14.1631L21.3956 17.0902L23.8855 15.2812L23.2977 14.4721ZM25.0938 8.94427L26.0449 9.25329L26.2694 8.56231L25.6816 8.13526L25.0938 8.94427ZM20.3915 5.52786V4.52786H17.3139L19.8038 6.33688L20.3915 5.52786ZM26.2039 5.52786V6.52786H26.9304L27.1549 5.83688L26.2039 5.52786ZM48 0L48.951 -0.309017L48 -3.23607L47.0489 -0.309017L48 0ZM49.7961 5.52786L48.845 5.83688L49.0696 6.52786H49.7961V5.52786ZM46.2039 5.52786V6.52786H46.9304L47.1549 5.83688L46.2039 5.52786ZM40.3915 5.52786V4.52786H37.3139L39.8038 6.33688L40.3915 5.52786ZM45.0938 8.94427L46.0449 9.25329L46.2694 8.56231L45.6816 8.13526L45.0938 8.94427ZM43.2977 14.4721L42.3467 14.1631L41.3956 17.0902L43.8855 15.2812L43.2977 14.4721ZM48 11.0557L48.5878 10.2467L48 9.81966L47.4122 10.2467L48 11.0557ZM52.7023 14.4721L52.1145 15.2812L54.6044 17.0902L53.6533 14.1631L52.7023 14.4721ZM50.9062 8.94427L50.3184 8.13526L49.7306 8.56231L49.9551 9.25329L50.9062 8.94427ZM55.6084 5.52786L56.1962 6.33688L58.6861 4.52786H55.6084V5.52786ZM69.7961 5.52786L68.845 5.83688L69.0696 6.52786H69.7961V5.52786ZM68 0L68.951 -0.309017L68 -3.23607L67.0489 -0.309017L68 0ZM75.6084 5.52786L76.1962 6.33688L78.6861 4.52786H75.6084V5.52786ZM70.9062 8.94427L70.3184 8.13525L69.7306 8.56231L69.9551 9.25329L70.9062 8.94427ZM72.7023 14.4721L72.1145 15.2812L74.6044 17.0902L73.6533 14.1631L72.7023 14.4721ZM68 11.0557L68.5878 10.2467L68 9.81966L67.4122 10.2467L68 11.0557ZM63.2977 14.4721L62.3467 14.1631L61.3956 17.0902L63.8855 15.2812L63.2977 14.4721ZM65.0938 8.94427L66.0449 9.25329L66.2694 8.56231L65.6816 8.13525L65.0938 8.94427ZM60.3915 5.52786V4.52786H57.3139L59.8038 6.33688L60.3915 5.52786ZM66.2039 5.52786V6.52786H66.9304L67.1549 5.83688L66.2039 5.52786ZM88 0L88.951 -0.309017L88 -3.23607L87.0489 -0.309017L88 0ZM89.7961 5.52786L88.845 5.83688L89.0696 6.52786H89.7961V5.52786ZM86.2039 5.52786V6.52786H86.9304L87.1549 5.83688L86.2039 5.52786ZM80.3915 5.52786V4.52786H77.3139L79.8038 6.33688L80.3915 5.52786ZM85.0938 8.94427L86.0449 9.25329L86.2694 8.56231L85.6816 8.13525L85.0938 8.94427ZM83.2977 14.4721L82.3467 14.1631L81.3956 17.0902L83.8855 15.2812L83.2977 14.4721ZM88 11.0557L88.5878 10.2467L88 9.81966L87.4122 10.2467L88 11.0557ZM92.7023 14.4721L92.1145 15.2812L94.6044 17.0902L93.6533 14.1631L92.7023 14.4721ZM90.9062 8.94427L90.3184 8.13525L89.7306 8.56231L89.9551 9.25329L90.9062 8.94427ZM95.6084 5.52786L96.1962 6.33688L98.6861 4.52786H95.6084V5.52786ZM10.7472 5.21885L8.95105 -0.309017L7.04894 0.309017L8.84505 5.83688L10.7472 5.21885ZM15.6084 4.52786H9.7961V6.52786H15.6084V4.52786ZM11.4939 9.75329L16.1962 6.33688L15.0207 4.71885L10.3184 8.13526L11.4939 9.75329ZM13.6533 14.1631L11.8572 8.63525L9.95511 9.25329L11.7512 14.7812L13.6533 14.1631ZM7.41221 11.8647L12.1145 15.2812L13.2901 13.6631L8.58778 10.2467L7.41221 11.8647ZM3.8855 15.2812L8.58778 11.8647L7.41221 10.2467L2.70993 13.6631L3.8855 15.2812ZM4.14277 8.63525L2.34665 14.1631L4.24877 14.7812L6.04488 9.25329L4.14277 8.63525ZM-0.196245 6.33688L4.50604 9.75329L5.68161 8.13526L0.979326 4.71885L-0.196245 6.33688ZM6.20388 4.52786H0.391541V6.52786H6.20388V4.52786ZM7.04894 -0.309017L5.25282 5.21885L7.15494 5.83688L8.95105 0.309017L7.04894 -0.309017ZM30.7472 5.21885L28.951 -0.309017L27.0489 0.309017L28.845 5.83688L30.7472 5.21885ZM35.6084 4.52786H29.7961V6.52786H35.6084V4.52786ZM31.4939 9.75329L36.1962 6.33688L35.0207 4.71885L30.3184 8.13526L31.4939 9.75329ZM33.6533 14.1631L31.8572 8.63525L29.9551 9.25329L31.7512 14.7812L33.6533 14.1631ZM27.4122 11.8647L32.1145 15.2812L33.2901 13.6631L28.5878 10.2467L27.4122 11.8647ZM23.8855 15.2812L28.5878 11.8647L27.4122 10.2467L22.7099 13.6631L23.8855 15.2812ZM24.1428 8.63525L22.3467 14.1631L24.2488 14.7812L26.0449 9.25329L24.1428 8.63525ZM19.8038 6.33688L24.506 9.75329L25.6816 8.13526L20.9793 4.71885L19.8038 6.33688ZM26.2039 4.52786H20.3915V6.52786H26.2039V4.52786ZM27.0489 -0.309017L25.2528 5.21885L27.1549 5.83688L28.951 0.309017L27.0489 -0.309017ZM47.0489 0.309017L48.845 5.83688L50.7472 5.21885L48.951 -0.309017L47.0489 0.309017ZM47.1549 5.83688L48.951 0.309017L47.0489 -0.309017L45.2528 5.21885L47.1549 5.83688ZM40.3915 6.52786H46.2039V4.52786H40.3915V6.52786ZM45.6816 8.13526L40.9793 4.71885L39.8038 6.33688L44.506 9.75329L45.6816 8.13526ZM44.2488 14.7812L46.0449 9.25329L44.1428 8.63525L42.3467 14.1631L44.2488 14.7812ZM47.4122 10.2467L42.7099 13.6631L43.8855 15.2812L48.5878 11.8647L47.4122 10.2467ZM53.2901 13.6631L48.5878 10.2467L47.4122 11.8647L52.1145 15.2812L53.2901 13.6631ZM49.9551 9.25329L51.7512 14.7812L53.6533 14.1631L51.8572 8.63525L49.9551 9.25329ZM55.0207 4.71885L50.3184 8.13526L51.4939 9.75329L56.1962 6.33688L55.0207 4.71885ZM49.7961 6.52786H55.6084V4.52786H49.7961V6.52786ZM70.7472 5.21885L68.951 -0.309017L67.0489 0.309017L68.845 5.83688L70.7472 5.21885ZM75.6084 4.52786H69.7961V6.52786H75.6084V4.52786ZM71.4939 9.75329L76.1962 6.33688L75.0207 4.71885L70.3184 8.13525L71.4939 9.75329ZM73.6533 14.1631L71.8572 8.63525L69.9551 9.25329L71.7512 14.7812L73.6533 14.1631ZM67.4122 11.8647L72.1145 15.2812L73.2901 13.6631L68.5878 10.2467L67.4122 11.8647ZM63.8855 15.2812L68.5878 11.8647L67.4122 10.2467L62.7099 13.6631L63.8855 15.2812ZM64.1428 8.63525L62.3467 14.1631L64.2488 14.7812L66.0449 9.25329L64.1428 8.63525ZM59.8038 6.33688L64.506 9.75329L65.6816 8.13525L60.9793 4.71885L59.8038 6.33688ZM66.2039 4.52786H60.3915V6.52786H66.2039V4.52786ZM67.0489 -0.309017L65.2528 5.21885L67.1549 5.83688L68.951 0.309017L67.0489 -0.309017ZM87.0489 0.309017L88.845 5.83688L90.7472 5.21885L88.951 -0.309017L87.0489 0.309017ZM87.1549 5.83688L88.951 0.309017L87.0489 -0.309017L85.2528 5.21885L87.1549 5.83688ZM80.3915 6.52786H86.2039V4.52786H80.3915V6.52786ZM85.6816 8.13525L80.9793 4.71885L79.8038 6.33688L84.506 9.75329L85.6816 8.13525ZM84.2488 14.7812L86.0449 9.25329L84.1428 8.63525L82.3467 14.1631L84.2488 14.7812ZM87.4122 10.2467L82.7099 13.6631L83.8855 15.2812L88.5878 11.8647L87.4122 10.2467ZM93.2901 13.6631L88.5878 10.2467L87.4122 11.8647L92.1145 15.2812L93.2901 13.6631ZM89.9551 9.25329L91.7512 14.7812L93.6533 14.1631L91.8572 8.63525L89.9551 9.25329ZM95.0207 4.71885L90.3184 8.13525L91.4939 9.75329L96.1962 6.33688L95.0207 4.71885ZM89.7961 6.52786H95.6084V4.52786H89.7961V6.52786Z" fill="#F9F139" mask="url(#path-1-inside-1_106_19)"/>
</svg>
