<svg width="96" height="15" viewBox="0 0 96 15" fill="none" xmlns="http://www.w3.org/2000/svg">
<path fill-rule="evenodd" clip-rule="evenodd" d="M9.40456 5.52786L8.13418 1.61803L7.60845 0L7.08272 1.61803L5.81234 5.52786H1.7013H0L1.37638 6.52786L4.70228 8.94427L3.4319 12.8541L2.90617 14.4721L4.28255 13.4721L7.60845 11.0557L10.9344 13.4721L12.3107 14.4721L11.785 12.8541L10.5146 8.94427L13.8405 6.52786L15.2169 5.52786H13.5156H9.40456ZM12.1392 6.52786H9.40456H8.67802L8.45351 5.83688L7.60845 3.23607L6.7634 5.83688L6.53888 6.52786H5.81234H3.07768L5.29007 8.13525L5.87785 8.56231L5.65334 9.25329L4.80828 11.8541L7.02067 10.2467L7.60845 9.81966L8.19624 10.2467L10.4086 11.8541L9.56357 9.25329L9.33905 8.56231L9.92684 8.13525L12.1392 6.52786ZM29.4046 5.52786L28.1342 1.61803L27.6085 0L27.0827 1.61803L25.8123 5.52786H21.7013H20L21.3764 6.52786L24.7023 8.94427L23.4319 12.8541L22.9062 14.4721L24.2826 13.4721L27.6085 11.0557L30.9344 13.4721L32.3107 14.4721L31.785 12.8541L30.5146 8.94427L33.8405 6.52786L35.2169 5.52786H33.5156H29.4046ZM32.1392 6.52786H29.4046H28.678L28.4535 5.83688L27.6085 3.23607L26.7634 5.83688L26.5389 6.52786H25.8123H23.0777L25.2901 8.13525L25.8779 8.56231L25.6533 9.25329L24.8083 11.8541L27.0207 10.2467L27.6085 9.81966L28.1962 10.2467L30.4086 11.8541L29.5636 9.25329L29.3391 8.56231L29.9268 8.13525L32.1392 6.52786ZM48.1342 1.61803L49.4046 5.52786H53.5156H55.2169L53.8405 6.52786L50.5146 8.94427L51.785 12.8541L52.3107 14.4721L50.9344 13.4721L47.6085 11.0557L44.2826 13.4721L42.9062 14.4721L43.4319 12.8541L44.7023 8.94427L41.3764 6.52786L40 5.52786H41.7013H45.8123L47.0827 1.61803L47.6085 0L48.1342 1.61803ZM49.4046 6.52786H52.1392L49.9268 8.13525L49.3391 8.56231L49.5636 9.25329L50.4086 11.8541L48.1962 10.2467L47.6085 9.81966L47.0207 10.2467L44.8083 11.8541L45.6533 9.25329L45.8779 8.56231L45.2901 8.13525L43.0777 6.52786H45.8123H46.5389L46.7634 5.83688L47.6085 3.23607L48.4535 5.83688L48.678 6.52786H49.4046ZM69.4046 5.52786L68.1342 1.61803L67.6085 0L67.0827 1.61803L65.8123 5.52786H61.7013H60L61.3764 6.52786L64.7023 8.94427L63.4319 12.8541L62.9062 14.4721L64.2826 13.4721L67.6085 11.0557L70.9343 13.4721L72.3107 14.4721L71.785 12.8541L70.5146 8.94427L73.8405 6.52786L75.2169 5.52786H73.5156H69.4046ZM72.1392 6.52786H69.4046H68.678L68.4535 5.83688L67.6085 3.23607L66.7634 5.83688L66.5389 6.52786H65.8123H63.0777L65.2901 8.13525L65.8779 8.56231L65.6533 9.25329L64.8083 11.8541L67.0207 10.2467L67.6085 9.81966L68.1962 10.2467L70.4086 11.8541L69.5636 9.25329L69.3391 8.56231L69.9268 8.13525L72.1392 6.52786ZM88.1342 1.61803L89.4046 5.52786H93.5156H95.2169L93.8405 6.52786L90.5146 8.94427L91.785 12.8541L92.3107 14.4721L90.9343 13.4721L87.6085 11.0557L84.2826 13.4721L82.9062 14.4721L83.4319 12.8541L84.7023 8.94427L81.3764 6.52786L80 5.52786H81.7013H85.8123L87.0827 1.61803L87.6085 0L88.1342 1.61803ZM89.4046 6.52786H92.1392L89.9268 8.13525L89.3391 8.56231L89.5636 9.25329L90.4086 11.8541L88.1962 10.2467L87.6085 9.81966L87.0207 10.2467L84.8083 11.8541L85.6533 9.25329L85.8779 8.56231L85.2901 8.13525L83.0777 6.52786H85.8123H86.5389L86.7634 5.83688L87.6085 3.23607L88.4535 5.83688L88.678 6.52786H89.4046Z" fill="#F9F139"/>
</svg>
